<?xml version="1.0" encoding="iso-8859-1"?>
<!-- Generator: Adobe Illustrator 19.1.0, SVG Export Plug-In . SVG Version: 6.00 Build 0)  -->
<svg xmlns="http://www.w3.org/2000/svg" xmlns:xlink="http://www.w3.org/1999/xlink" version="1.1" id="Capa_1" x="0px" y="0px" viewBox="0 0 553.296 553.296" style="enable-background:new 0 0 553.296 553.296;" xml:space="preserve" width="512px" height="512px">
<g>
	<path d="M276.648,0C125.749,0,0,125.749,0,276.648s125.749,276.648,276.648,276.648s276.648-125.749,276.648-276.648   S427.547,0,276.648,0z M321.917,138.324c2.515-5.03,5.03-7.545,10.06-10.06l75.449-7.545c7.545,0,12.575,5.03,15.09,10.06   c0,7.545-5.03,12.575-10.06,15.09l-47.785,5.03l42.755,35.21c5.03,5.03,5.03,12.575,2.515,17.605   c-2.515,2.515-5.03,5.03-10.06,5.03c-2.515,0-5.03,0-7.545-2.515l-65.39-55.33C321.917,148.384,321.917,143.354,321.917,138.324z    M113.174,133.294c0-7.545,5.03-12.575,12.575-12.575l85.509,5.03c5.03,0,10.06,2.515,10.06,7.545s0,10.06-2.515,12.575   l-57.845,55.33c-2.515,2.515-5.03,2.515-7.545,2.515c-5.03,0-7.545,0-10.06-2.515c-5.03-5.03-5.03-12.575,0-17.605l35.21-32.695   l-55.33-5.03C118.204,145.869,110.659,140.839,113.174,133.294z M347.067,465.271v-12.575c2.515-27.665-5.03-45.27-17.605-52.815   c-15.09-7.545-35.21,0-45.27,5.03c-17.605-10.06-35.21-10.06-45.27-2.515c-22.635,15.09-17.605,52.815-17.605,57.845v10.06   c-52.815-20.12-90.539-67.904-90.539-123.234c0-72.934,67.904-133.294,150.899-133.294s150.899,60.36,150.899,133.294   C432.577,397.367,397.367,442.636,347.067,465.271z" fill="#ef7f83"/>
</g>
<g>
</g>
<g>
</g>
<g>
</g>
<g>
</g>
<g>
</g>
<g>
</g>
<g>
</g>
<g>
</g>
<g>
</g>
<g>
</g>
<g>
</g>
<g>
</g>
<g>
</g>
<g>
</g>
<g>
</g>
</svg>
