<?xml version="1.0" encoding="iso-8859-1"?>
<!-- Generator: Adobe Illustrator 16.0.0, SVG Export Plug-In . SVG Version: 6.00 Build 0)  -->
<!DOCTYPE svg PUBLIC "-//W3C//DTD SVG 1.1//EN" "http://www.w3.org/Graphics/SVG/1.1/DTD/svg11.dtd">
<svg xmlns="http://www.w3.org/2000/svg" xmlns:xlink="http://www.w3.org/1999/xlink" version="1.1" id="Capa_1" x="0px" y="0px" width="512px" height="512px" viewBox="0 0 46.062 46.062" style="enable-background:new 0 0 46.062 46.062;" xml:space="preserve">
<g>
	<path d="M23.525,30.243c-1.38,0-2.5-0.445-2.5-1c0-0.553,1.12-1,2.5-1s2.5,0.447,2.5,1C26.025,29.797,24.905,30.243,23.525,30.243z    M16.733,20.861c-1.241,0-2.25,1.009-2.25,2.25c0,1.24,1.009,2.25,2.25,2.25c1.241,0,2.25-1.01,2.25-2.25   C18.983,21.87,17.973,20.861,16.733,20.861z M30.317,25.362c1.24,0,2.25-1.01,2.25-2.25c0-1.242-1.01-2.25-2.25-2.25   c-1.241,0-2.25,1.009-2.25,2.25C28.067,24.352,29.076,25.362,30.317,25.362z M46.025,27.233c-0.138,3.748-8.375,13.875,0,17.625   l-7.5-2.5c0,1.5,0.5,2,0.5,2c-5.15,0.745-11.77-0.201-16.751-1.222c-2.027-0.133-3.98-0.588-5.81-1.308   c0.64,1.556,1.937,3.152,1.937,3.152c-4.125-0.625-7.125-2.75-7.125-2.75l-0.5,2.5c-12.25-4.125-11.955-25.481-9.25-31.875   c1.375-3.25,4-11.125,14.25-8.25c0,0,10.395-9.467,22.75,2.625C41.657,10.299,46.525,13.482,46.025,27.233z M23.555,39.18   c6.697,0,12.37-4.266,14.409-10.184c0.254,0.115,0.527,0.184,0.816,0.184c1.245,0,2.243-1.146,2.243-2.562   c0-1.397-0.977-2.53-2.2-2.559c-0.316,0.518-0.673,1.018-1.07,1.495c0.418-1.429,0.646-2.896,0.646-4.354   c0-0.393-0.029-0.77-0.062-1.146c-3.256,0.79-7.831-0.173-12.099-2.865c-2.204-1.39-4.025-3.054-5.372-4.79   c-2.403,1.339-4.68,4.123-11.928,7.01c-0.079,0.579-0.133,1.17-0.133,1.791c0,1.458,0.228,2.927,0.646,4.354   c-0.417-0.5-0.79-1.022-1.117-1.565c0,0.023-0.002,0.051-0.002,0.074c-0.024-0.002-0.046-0.009-0.069-0.009   c-1.245,0-2.243,1.146-2.243,2.563c0,1.416,0.998,2.562,2.243,2.562c0.31,0,0.605-0.072,0.874-0.201   C11.174,34.907,16.854,39.18,23.555,39.18z" fill="#ef7f83"/>
</g>
<g>
</g>
<g>
</g>
<g>
</g>
<g>
</g>
<g>
</g>
<g>
</g>
<g>
</g>
<g>
</g>
<g>
</g>
<g>
</g>
<g>
</g>
<g>
</g>
<g>
</g>
<g>
</g>
<g>
</g>
</svg>
