<?xml version="1.0" encoding="iso-8859-1"?>
<!-- Generator: Adobe Illustrator 19.0.0, SVG Export Plug-In . SVG Version: 6.00 Build 0)  -->
<svg xmlns="http://www.w3.org/2000/svg" xmlns:xlink="http://www.w3.org/1999/xlink" version="1.1" id="Layer_1" x="0px" y="0px" viewBox="0 0 330 330" style="enable-background:new 0 0 330 330;" xml:space="preserve" width="512px" height="512px">
<path id="XMLID_18_" d="M165,0C74.019,0,0,74.019,0,165s74.019,165,165,165s165-74.019,165-165S255.981,0,165,0z M81,133  c0-5.26,2.13-10.42,5.859-14.141C90.58,115.14,95.73,113,101,113c5.26,0,10.42,2.14,14.14,5.859c3.72,3.721,5.86,8.881,5.86,14.141  c0,5.26-2.141,10.42-5.86,14.14c-3.72,3.72-8.88,5.86-14.14,5.86c-5.26,0-10.42-2.141-14.141-5.86C83.13,143.42,81,138.26,81,133z   M226.518,226.519C210.086,242.95,188.238,252,165,252c-23.238,0-45.086-9.05-61.518-25.481c-4.291-4.29-5.574-10.741-3.252-16.347  c2.321-5.605,7.791-9.26,13.857-9.26h101.823c6.067,0,11.536,3.654,13.858,9.26C232.091,215.777,230.808,222.229,226.518,226.519z   M243.14,147.14c-3.72,3.72-8.88,5.86-14.14,5.86c-5.26,0-10.42-2.141-14.141-5.86C211.14,143.42,209,138.26,209,133  c0-5.271,2.14-10.42,5.859-14.141C218.58,115.14,223.74,113,229,113c5.269,0,10.42,2.14,14.14,5.859  c3.73,3.721,5.86,8.881,5.86,14.141C249,138.26,246.869,143.42,243.14,147.14z" fill="#ef7f83"/>
<g>
</g>
<g>
</g>
<g>
</g>
<g>
</g>
<g>
</g>
<g>
</g>
<g>
</g>
<g>
</g>
<g>
</g>
<g>
</g>
<g>
</g>
<g>
</g>
<g>
</g>
<g>
</g>
<g>
</g>
</svg>
