<?xml version="1.0" encoding="iso-8859-1"?>
<!-- Generator: Adobe Illustrator 18.0.0, SVG Export Plug-In . SVG Version: 6.00 Build 0)  -->
<!DOCTYPE svg PUBLIC "-//W3C//DTD SVG 1.1//EN" "http://www.w3.org/Graphics/SVG/1.1/DTD/svg11.dtd">
<svg xmlns="http://www.w3.org/2000/svg" xmlns:xlink="http://www.w3.org/1999/xlink" version="1.1" id="Capa_1" x="0px" y="0px" viewBox="0 0 496.031 496.031" style="enable-background:new 0 0 496.031 496.031;" xml:space="preserve" width="512px" height="512px">
<path id="XMLID_96_" d="M324.488,446.43V121.941c0-29.491-16.871-54.785-41.334-67.551V35.137C283.154,15.727,267.425,0,248.019,0  c-19.412,0-35.137,15.727-35.137,35.137v19.254c-24.467,12.766-41.338,38.06-41.338,67.551V446.43  c-13.691,0-24.802,11.102-24.802,24.801c0,13.701,11.11,24.801,24.802,24.801h152.943c13.693,0,24.801-11.1,24.801-24.801  C349.289,457.531,338.181,446.43,324.488,446.43z M193.585,124.613c0-16.558,7.59-31.234,19.297-41.223  c9.508-8.121,21.682-13.207,35.137-13.207c4.566,0,8.266,3.697,8.266,8.267c0,4.569-3.699,8.267-8.266,8.267  c-0.309,0-0.586,0.082-0.877,0.088c-20.488,0.486-37.021,17.215-37.021,37.809v150.869c0,4.568-3.697,8.267-8.268,8.267  c-4.572,0-8.268-3.698-8.268-8.267V124.613z" fill="#ef7f83"/>
<g>
</g>
<g>
</g>
<g>
</g>
<g>
</g>
<g>
</g>
<g>
</g>
<g>
</g>
<g>
</g>
<g>
</g>
<g>
</g>
<g>
</g>
<g>
</g>
<g>
</g>
<g>
</g>
<g>
</g>
</svg>
