<?xml version="1.0" encoding="iso-8859-1"?>
<!-- Generator: Adobe Illustrator 19.0.0, SVG Export Plug-In . SVG Version: 6.00 Build 0)  -->
<svg xmlns="http://www.w3.org/2000/svg" xmlns:xlink="http://www.w3.org/1999/xlink" version="1.1" id="Layer_1" x="0px" y="0px" viewBox="0 0 509.129 509.129" style="enable-background:new 0 0 509.129 509.129;" xml:space="preserve" width="512px" height="512px">
<g>
	<g>
		<g>
			<path d="M254.565,128c-68.059,0-123.429,55.369-123.429,123.429s55.369,123.429,123.429,123.429s123.429-55.369,123.429-123.429     S322.624,128,254.565,128z" fill="#ef7f83"/>
			<path d="M254.565,82.286c-93.266,0-169.143,75.877-169.143,169.143s75.877,169.143,169.143,169.143     s169.143-75.877,169.143-169.143S347.831,82.286,254.565,82.286z M254.565,393.143c-78.144,0-141.714-63.57-141.714-141.714     s63.57-141.714,141.714-141.714s141.714,63.57,141.714,141.714S332.709,393.143,254.565,393.143z" fill="#ef7f83"/>
			<path d="M471.177,3.136l-24.293,24.293L419.456,0l-27.429,27.429L364.599,0L337.17,27.429L309.742,0l-27.429,27.429L254.885,0     l-27.429,27.429L200.027,0l-27.429,27.429L145.17,0l-27.429,27.429L90.313,0L62.885,27.429L38.592,3.136h-17.17v502.857h16.53     l24.283-24.293l27.429,27.429l27.429-27.429l27.429,27.429l27.429-27.429l27.429,27.429l27.429-27.429l27.429,27.429     l27.429-27.429l27.429,27.429l27.429-27.429l27.429,27.429l27.429-27.429l27.429,27.429l27.429-27.429l24.293,24.293h17.179     V3.136H471.177z M254.565,441.993c-103.351,0-187.429-84.078-187.429-187.429S151.214,67.136,254.565,67.136     s187.429,84.078,187.429,187.429S357.915,441.993,254.565,441.993z" fill="#ef7f83"/>
		</g>
	</g>
</g>
<g>
</g>
<g>
</g>
<g>
</g>
<g>
</g>
<g>
</g>
<g>
</g>
<g>
</g>
<g>
</g>
<g>
</g>
<g>
</g>
<g>
</g>
<g>
</g>
<g>
</g>
<g>
</g>
<g>
</g>
</svg>
