<?xml version="1.0" encoding="iso-8859-1"?>
<!-- Generator: Adobe Illustrator 19.0.0, SVG Export Plug-In . SVG Version: 6.00 Build 0)  -->
<svg xmlns="http://www.w3.org/2000/svg" xmlns:xlink="http://www.w3.org/1999/xlink" version="1.1" id="Layer_1" x="0px" y="0px" viewBox="0 0 330 330" style="enable-background:new 0 0 330 330;" xml:space="preserve" width="512px" height="512px">
<path id="XMLID_23_" d="M165,0C74.019,0,0,74.019,0,165s74.019,165,165,165c90.982,0,165-74.019,165-165S255.982,0,165,0z M81,133  c0-5.26,2.14-10.42,5.859-14.141C90.58,115.14,95.73,113,101,113c5.26,0,10.42,2.14,14.14,5.859C118.869,122.58,121,127.74,121,133  c0,5.26-2.131,10.42-5.86,14.14c-3.72,3.72-8.88,5.86-14.14,5.86c-5.26,0-10.42-2.141-14.141-5.86C83.14,143.42,81,138.26,81,133z   M226.518,226.518c-5.857,5.857-15.355,5.857-21.213,0c-10.767-10.766-25.08-16.694-40.305-16.694  c-15.227,0-29.539,5.929-40.306,16.694c-2.929,2.929-6.768,4.394-10.606,4.394s-7.678-1.465-10.607-4.394  c-5.858-5.857-5.858-15.355-0.001-21.213c16.432-16.432,38.281-25.482,61.519-25.482c0.001,0-0.001,0,0.001,0  c23.238,0,45.086,9.05,61.518,25.482C232.375,211.162,232.375,220.66,226.518,226.518z M243.14,147.14  c-3.72,3.72-8.88,5.86-14.14,5.86c-5.26,0-10.42-2.141-14.141-5.86C211.13,143.42,209,138.26,209,133  c0-5.26,2.13-10.42,5.859-14.141C218.58,115.14,223.73,113,229,113c5.26,0,10.42,2.14,14.14,5.859  c3.73,3.721,5.86,8.881,5.86,14.141C249,138.26,246.869,143.42,243.14,147.14z" fill="#ef7f83"/>
<g>
</g>
<g>
</g>
<g>
</g>
<g>
</g>
<g>
</g>
<g>
</g>
<g>
</g>
<g>
</g>
<g>
</g>
<g>
</g>
<g>
</g>
<g>
</g>
<g>
</g>
<g>
</g>
<g>
</g>
</svg>
